# xmcd
#
# Track frame offsets:
# 150
# 10527
# 26622
# 42512
# 53845
# 74100
# 95195
# 107310
# 125090
# 140427
# 148497
# 170227
# 184222
# 191602
# 208517
# 225237
# 241475
# 259247
# 273920
# 289500
#
# Disc length: 4033 seconds
#
#
# Revision: 0
# Processed by: cddbd v1.5.1PL0 Copyright (c) Steve Scherf et al.
# Submitted via: FreeRIP 2.35 
#
DISCID=340fbf14
DTITLE=The LaFontaines - Songs We Sing, Vols 1 and 2
DYEAR=1900
DGENRE=Gospel
TTITLE0=Happy In The Lord
TTITLE1=Sheltered In The Arms Of God
TTITLE2=I Love Him Too Much
TTITLE3=Cast Your Bread
TTITLE4=Just Because
TTITLE5=When I Stand In The Presence Of The Lord
TTITLE6=God Can
TTITLE7=The Eyes Of Jesus
TTITLE8=He Didn't Bring Us This Far
TTITLE9=The Van Practice Song (Medley)
TTITLE10=More Than Ever, Lord
TTITLE11=Paid In Full
TTITLE12=He Brought Me Out
TTITLE13=When I Receive My Robe And Crown
TTITLE14=That's Not All There Is
TTITLE15=There Is A Savior
TTITLE16=The World Will Know
TTITLE17=Good News
TTITLE18=Dream On
TTITLE19=Bless The Lord
EXTD=
EXTT0=
EXTT1=
EXTT2=
EXTT3=
EXTT4=
EXTT5=
EXTT6=
EXTT7=
EXTT8=
EXTT9=
EXTT10=
EXTT11=
EXTT12=
EXTT13=
EXTT14=
EXTT15=
EXTT16=
EXTT17=
EXTT18=
EXTT19=
PLAYORDER=
